<svg xmlns="http://www.w3.org/2000/svg" width="1024" height="1024" viewBox="0 0 1024 1024">
  <defs>
    <linearGradient id="bg" x1="0" y1="0" x2="0.2" y2="1">
      <stop offset="0%" stop-color="#FF9A4A"/>
      <stop offset="55%" stop-color="#F97316"/>
      <stop offset="100%" stop-color="#C2410C"/>
    </linearGradient>
    <linearGradient id="paper" x1="0" y1="0" x2="0" y2="1">
      <stop offset="0%" stop-color="#FFFBF7"/>
      <stop offset="100%" stop-color="#FFE8D2"/>
    </linearGradient>
    <filter id="shadow" x="-30%" y="-30%" width="160%" height="160%">
      <feDropShadow dx="0" dy="22" stdDeviation="28" flood-color="#7A2200" flood-opacity="0.32"/>
    </filter>
  </defs>
  <rect width="1024" height="1024" fill="url(#bg)"/>
  <g filter="url(#shadow)">
    <rect x="292" y="228" width="440" height="540" rx="52" fill="url(#paper)"/>
    <path d="M668 228h64c0 0-2 62-64 64V228z" fill="#FFD2A8"/>
    <path d="M668 228l64 64" stroke="#E8B07A" stroke-width="8" stroke-linecap="round"/>
    <circle cx="512" cy="308" r="26" fill="#E85D04"/>
    <circle cx="512" cy="308" r="10" fill="#FFF4EA"/>
    <rect x="368" y="392" width="272" height="32" rx="16" fill="#E85D04"/>
    <rect x="368" y="464" width="228" height="28" rx="14" fill="#F4A261"/>
    <rect x="368" y="528" width="188" height="28" rx="14" fill="#F6C28B"/>
    <rect x="368" y="592" width="140" height="28" rx="14" fill="#F6C28B"/>
  </g>
</svg>
